<?xml version="1.0" encoding="UTF-8"?>
<!DOCTYPE svg PUBLIC "-//W3C//DTD SVG 1.1//EN" "http://www.w3.org/Graphics/SVG/1.1/DTD/svg11.dtd">
<!-- Creator: CorelDRAW -->
<svg xmlns="http://www.w3.org/2000/svg" xml:space="preserve" width="0.809472in" height="0.72702in" version="1.1" style="shape-rendering:geometricPrecision; text-rendering:geometricPrecision; image-rendering:optimizeQuality; fill-rule:evenodd; clip-rule:evenodd"
viewBox="0 0 2843.54 2553.9"
 xmlns:xlink="http://www.w3.org/1999/xlink"
 xmlns:xodm="http://www.corel.com/coreldraw/odm/2003">
 <defs>
  <style type="text/css">
   <![CDATA[
    .fil4 {fill:#536F7B;fill-rule:nonzero}
    .fil3 {fill:#6CA4AB;fill-rule:nonzero}
    .fil2 {fill:#9A9A9A;fill-rule:nonzero}
    .fil0 {fill:#C8C8C8;fill-rule:nonzero}
    .fil1 {fill:#E1E1E1;fill-rule:nonzero}
   ]]>
  </style>
 </defs>
 <g id="Layer_x0020_1">
  <metadata id="CorelCorpID_0Corel-Layer"/>
  <g id="_3217560132304">
   <path class="fil0" d="M107.28 393.77c0,0 -83.52,-131.94 -99.89,-167.26 -21.05,-45.38 2.1,-56.37 80.71,-56.84 50.3,-0.24 533.36,0 533.36,0l437 0c0,0 -3.28,-157.21 0,-165.63 3.26,-8.19 738.52,-1.63 741.79,0 3.28,1.63 1.63,165.63 1.63,165.63l435.12 0c0,0 548.8,0 571.97,0 23.15,0 47.26,21.3 26.9,61.76 -20.34,40.47 -76.96,118.59 -76.96,118.59l-6.31 2049.96 -162.59 90.77 -2357.34 -9.35 -125.15 -71.83 -0.24 -2015.8z"/>
   <polygon class="fil1" points="614.91,2432.73 614.91,338.79 1385.49,221.36 2235.6,345.58 2235.6,2432.73 1437.42,2474.14 "/>
   <polygon class="fil2" points="615.15,169.43 2236.77,169.67 2235.6,345.58 614.91,338.79 "/>
   <path class="fil2" d="M107.51 2409.57l935.49 -6.31c0,0 -1.16,-723.09 0,-752.11 0.71,-21.05 5.85,-38.35 32.75,-40.23 26.91,-1.88 650.8,-1.88 673.97,-1.88 22.92,0 40.23,13.35 40.23,46.1 0,32.75 0,746.93 0,746.93 0,0 963.1,-8.88 962.63,-1.63 -0.69,7.25 1.18,107.14 1.18,120.71 0,13.35 -5.85,32.75 -42.35,32.75 -36.5,0 -2557.35,0 -2572.79,0 -15.43,0 -30.65,-15.43 -30.65,-34.62 0,-19.18 -0.46,-109.71 -0.46,-109.71z"/>
   <rect class="fil3" x="1217.76" y="411.79" width="420.14" height="248.91"/>
   <rect class="fil3" x="1215.66" y="816.02" width="424.35" height="239.08"/>
   <rect class="fil3" x="1211.68" y="1220.49" width="428.33" height="256.86"/>
   <path class="fil3" d="M1849.13 419.74c-2.1,6.09 0,247.03 0,247.03l256.4 -0.69c0,0 3.51,-243.3 -1.41,-248.21 -4.91,-4.91 -253.1,-4.22 -254.98,1.87z"/>
   <polygon class="fil3" points="1853.11,808.06 1855,1052.99 2098.04,1051.12 2102.03,812.04 "/>
   <path class="fil3" d="M1865.05 1222.37c0,0 -6.09,236.96 -2.12,243.05 3.98,6.09 235.11,6.09 243.06,0 7.95,-6.09 0,-240.95 0,-240.95l-240.95 -2.1z"/>
   <path class="fil3" d="M1866.23 1617.95l1.87 246.33c0,0 229.5,5.39 234.86,0 5.38,-5.38 10.76,-240.95 3.51,-246.33 -7.26,-5.38 -240.24,0 -240.24,0z"/>
   <path class="fil3" d="M1872.77 2019.14l3.26 244.68c0,0 226.22,1.88 231.13,-1.63 4.92,-3.51 5.14,-234.17 1.88,-241.2 -3.28,-7.01 -236.27,-1.85 -236.27,-1.85z"/>
   <path class="fil3" d="M2381.56 2260.09c2.82,3.51 243.99,3.51 243.99,3.51 0,0 7.5,-240.96 -1.16,-244.46 -6.31,-2.82 -244.93,-6.32 -248.19,-3.51 -7.5,6.79 3.26,241.89 5.37,244.46z"/>
   <path class="fil3" d="M2378.06 1630.1c-3.75,9.36 -7.03,246.34 -1.88,248.21 5.38,1.87 235.8,3.51 242.83,0 7.01,-3.51 12.39,-239.31 5.38,-244.69 -7.01,-5.38 -242.83,-12.17 -246.33,-3.51z"/>
   <path class="fil3" d="M2372.9 1473.6c6.32,7.95 233.94,7.03 240.96,3.51 7.01,-3.51 3.5,-232.3 -1.88,-240.95 -5.38,-8.66 -233.92,-3.51 -239.31,1.87 -5.38,5.38 -6.76,226.69 0.24,235.57z"/>
   <path class="fil3" d="M2379.93 829.59c-4.44,8.88 0,228.79 3.51,235.8 3.51,7.03 232.29,7.03 235.8,1.88 3.51,-5.39 5.38,-230.42 1.88,-235.82 -3.76,-5.38 -237.68,-8.89 -241.2,-1.87z"/>
   <path class="fil3" d="M2385.07 664.2c6.32,6.31 235.8,1.87 240.95,0 5.39,-1.88 3.51,-233.94 1.88,-242.83 -1.88,-8.89 -237.43,-3.51 -244.69,0 -6.79,3.51 -6.79,233.94 1.87,242.83z"/>
   <path class="fil3" d="M729.3 411.08c-2.1,6.09 0,247.03 0,247.03l255 -3.97c0,0 4.91,-240.02 0,-244.93 -4.92,-5.14 -252.88,-4.22 -255,1.87z"/>
   <path class="fil3" d="M735.16 815.09c0,0 -6.32,238.84 1.63,242.83 7.95,3.97 236.27,6.07 244.22,0 7.97,-6.09 1.41,-245.17 1.41,-245.17l-247.27 2.34z"/>
   <path class="fil3" d="M739.13 1222.84c-4.45,3.26 -6.09,236.96 -2.1,243.05 3.97,6.09 235.1,6.09 243.05,0 7.95,-6.09 6.09,-235.11 0,-240.95 -6.09,-5.85 -232.99,-7.95 -240.95,-2.1z"/>
   <path class="fil3" d="M731.18 1621.45c-6.32,6.32 -3.51,240.96 1.87,246.34 5.39,5.38 234.88,0 234.88,0l3.51 -246.34c-0.01,0 -233.23,-7.01 -240.26,0z"/>
   <polygon class="fil3" points="732.59,2012.82 732.59,2259.62 962.31,2257.52 967.45,2014.69 "/>
   <path class="fil3" d="M238.28 2257.52l240.95 -1.88 1.65 -245.15c0,0 -242.83,-6.32 -247.97,2.57 -5.14,8.66 5.38,244.46 5.38,244.46z"/>
   <path class="fil3" d="M234.76 1627.53c-3.73,9.36 -7.01,246.34 -1.87,248.21 5.38,1.87 235.8,3.51 242.83,0 7.01,-3.51 12.39,-239.31 5.38,-244.69 -7.01,-5.38 -242.83,-12.39 -246.34,-3.51z"/>
   <path class="fil3" d="M229.4 1471.03c6.31,7.95 233.92,7.03 240.95,3.51 7.03,-3.51 3.51,-232.3 -1.88,-240.95 -5.38,-8.89 -233.92,-3.51 -239.3,1.87 -4.91,4.91 -6.79,226.67 0.24,235.57z"/>
   <path class="fil3" d="M236.41 827.01c-4.45,8.89 0,228.79 3.51,235.8 3.5,7.03 232.29,7.03 235.8,1.88 3.5,-5.38 5.38,-230.42 1.87,-235.8 -3.51,-5.38 -237.67,-8.89 -241.18,-1.88z"/>
   <path class="fil3" d="M241.79 661.62c6.32,6.32 235.8,1.88 240.95,0 5.39,-1.87 3.51,-233.92 1.88,-242.81 -1.63,-8.89 -237.45,-3.51 -244.69,0 -7.01,3.51 -7.01,233.94 1.87,242.81z"/>
   <path class="fil1" d="M1148.28 2410.28c-1.63,-1.65 -4.92,-467.16 1.63,-475.59 6.78,-8.44 534.31,-3.28 539.21,1.63 4.91,4.91 3.28,470.66 1.65,473.96 -1.65,3.28 -542.48,0 -542.48,0z"/>
   <rect class="fil4" x="1197.87" y="1980.07" width="198.14" height="389.74"/>
   <rect class="fil4" x="1447.02" y="1979.37" width="202.35" height="389.74"/>
  </g>
 </g>
</svg>
