<?xml version="1.0" encoding="UTF-8"?>
<!DOCTYPE svg PUBLIC "-//W3C//DTD SVG 1.1//EN" "http://www.w3.org/Graphics/SVG/1.1/DTD/svg11.dtd">
<!-- Creator: CorelDRAW -->
<svg xmlns="http://www.w3.org/2000/svg" xml:space="preserve" width="5.25985in" height="5.25453in" version="1.1" style="shape-rendering:geometricPrecision; text-rendering:geometricPrecision; image-rendering:optimizeQuality; fill-rule:evenodd; clip-rule:evenodd"
viewBox="0 0 4312.22 4307.85"
 xmlns:xlink="http://www.w3.org/1999/xlink"
 xmlns:xodm="http://www.corel.com/coreldraw/odm/2003">
 <defs>
  <style type="text/css">
   <![CDATA[
    .fil0 {fill:#C9CACA}
    .fil2 {fill:#B6B6B7}
    .fil1 {fill:#E84B50}
    .fil3 {fill:#E84B50}
   ]]>
  </style>
 </defs>
 <g id="Layer_x0020_1">
  <metadata id="CorelCorpID_0Corel-Layer"/>
  <g id="_2427281194496">
   <path class="fil0" d="M2598.3 2785.79l0.27 434.68c155.11,23.77 519.28,118.39 560.16,286.18 96.71,396.93 -1468.16,541.94 -1921.55,179.51 -304.35,-243.29 219.02,-433.33 473.39,-465.09l0.15 -435.29c-165.26,0 -683.92,90.66 -859.06,140.22 -92.51,26.18 -173.1,51.23 -258.55,83 -208.11,77.37 -492.02,218.09 -575.9,431.68 -39.49,100.56 -4.28,209.96 38.15,274.41 161.91,245.93 597.81,387.99 881.46,459.15 777.24,194.98 1926.35,181.24 2687.47,-72.39 406.25,-135.37 1043.92,-480.72 439.4,-919.76 -35.44,-25.74 -70.25,-42.52 -107.03,-63.75 -328.01,-189.25 -817.84,-273.44 -1202.89,-317.03 -37.73,-4.27 -115.43,-15.54 -155.47,-15.54z"/>
   <path class="fil1" d="M1710.72 2785.79l-0.15 435.29c0.26,114.84 13.88,245.19 167.99,284.29 184.1,46.71 241.17,-113.67 275.95,-168.28 36.58,57.94 92.52,214.25 275.92,168.24 154.97,-38.88 167.33,-172.27 168.14,-284.86l-0.27 -434.68 0.24 -452.56c177.15,0 312.23,-119.56 324.14,-282.11 13.47,-183.75 0.33,-424.46 0.33,-614.47 0,-113.61 10.15,-188.29 -28.3,-270.56 -115.98,-248.13 -412.37,-182 -740.2,-182 -316.21,0 -620.66,-66.46 -737.39,176.26 -41.75,86.82 -31.11,155.88 -31.11,276.29 0,195.63 -9.15,413.55 -0.1,606.36 7.9,168.34 146.29,290.22 324.58,290.22l0.23 452.56z"/>
   <path class="fil2" d="M2598.56 3220.48c-0.81,112.59 -13.17,245.98 -168.14,284.86 -183.4,46.01 -239.34,-110.3 -275.92,-168.24 -34.78,54.6 -91.86,214.99 -275.95,168.28 -154.11,-39.1 -167.73,-169.46 -167.99,-284.29 -254.37,31.75 -777.74,221.79 -473.39,465.09 453.39,362.44 2018.26,217.42 1921.55,-179.51 -40.88,-167.8 -405.05,-262.42 -560.16,-286.18z"/>
   <path class="fil3" d="M1727.56 420.52c0,229.13 191.84,426.94 384.25,426.94 97.16,0 148.97,3.79 238.72,-43.06 309.57,-161.61 307.28,-601.65 -8.07,-759.69 -284.33,-142.49 -614.9,75.26 -614.9,375.81z"/>
  </g>
 </g>
</svg>
